<svg id="Capa_1" enable-background="new 0 0 512 512" height="512" viewBox="0 0 512 512" width="512" xmlns="http://www.w3.org/2000/svg"><g><g><path d="m397.884 58.663h-283.768c-4.273 0-8.332 1.871-11.108 5.12l-78.986 92.45h463.956l-78.986-92.45c-2.775-3.249-6.834-5.12-11.108-5.12z" fill="#c9bfc8"/></g><g><path d="m487.975 156.232h-24.627l-78.984-92.449c-2.781-3.249-6.84-5.122-11.113-5.122h24.637c4.274 0 8.333 1.873 11.104 5.122z" fill="#baafb9"/></g><g><path d="m24.022 156.233h463.956v348.271h-463.956z" fill="#efedef"/></g><g><g><path d="m431.45 403.594h-350.9c-3.957 0-7.164-3.208-7.164-7.164v-90.851c0-3.957 3.208-7.164 7.164-7.164h350.9c3.957 0 7.164 3.208 7.164 7.164v90.851c.001 3.956-3.207 7.164-7.164 7.164z" fill="#5f99d7"/></g><g><path d="m438.616 305.594v90.811c0 3.971-3.219 7.191-7.191 7.191h-24.039c3.961 0 7.181-3.219 7.181-7.191v-90.811c0-3.961-3.219-7.181-7.181-7.181h24.039c3.972.001 7.191 3.22 7.191 7.181z" fill="#3c87d0"/></g><g><path d="m431.45 411.094h-350.9c-8.086 0-14.665-6.578-14.665-14.664v-90.851c0-8.086 6.579-14.665 14.665-14.665h350.9c8.086 0 14.665 6.579 14.665 14.665v90.851c0 8.086-6.579 14.664-14.665 14.664zm-350.565-15h350.229v-90.18h-350.229z"/></g><g><path d="m297.876 332.383c-.018-.047-.036-.093-.055-.14-.898-2.179-3-3.586-5.356-3.586-.002 0-.005 0-.007 0-2.359.003-4.461 1.416-5.354 3.6-.016.038-.031.076-.045.114l-13.142 34.506c-.983 2.58.312 5.469 2.893 6.452 2.582.981 5.469-.313 6.452-2.894l2.047-5.373h14.213l2.023 5.359c.755 2.002 2.658 3.235 4.679 3.235.586 0 1.183-.104 1.764-.323 2.584-.975 3.888-3.859 2.913-6.443zm-8.76 22.68 3.331-8.744 3.3 8.744z"/><path d="m254.443 328.605c-.016 0-.033 0-.049 0-2.761.027-4.978 2.287-4.952 5.049l.188 19.395-15.344-22.219c-1.243-1.801-3.512-2.585-5.603-1.933-2.089.651-3.512 2.585-3.512 4.773v35.037c0 2.762 2.239 5 5 5s5-2.238 5-5v-18.997l14.58 21.112c1.446 2.086 3.867 2.967 6.165 2.25 2.341-.731 3.854-2.909 3.854-5.596l-.328-33.92c-.027-2.743-2.26-4.951-4.999-4.951z"/><path d="m387.798 363.139h-9.613v-7.34h8.535c2.761 0 5-2.238 5-5s-2.239-5-5-5h-8.535v-7.34h9.613c2.761 0 5-2.238 5-5s-2.239-5-5-5h-14.613c-2.761 0-5 2.238-5 5v34.68c0 2.762 2.239 5 5 5h14.613c2.761 0 5-2.238 5-5s-2.238-5-5-5z"/><path d="m133.821 329.175h-9.619c-1.328 0-2.601.528-3.539 1.468s-1.463 2.214-1.461 3.542v.025 33.377c0 .367.045.722.12 1.067.119 1.141.605 2.218 1.427 3.034.937.93 2.203 1.451 3.522 1.451h.019c.291-.001 7.155-.027 9.901-.075 10.63-.187 18.346-9.399 18.346-21.906 0-13.149-7.522-21.983-18.716-21.983zm.194 33.89c-1.109.02-2.964.035-4.761.047-.013-3.957-.027-9.254-.027-11.993 0-2.296-.009-7.821-.016-11.944h4.61c8.087 0 8.716 9.172 8.716 11.982 0 5.853-2.635 11.805-8.522 11.908z"/><path d="m349.368 328.3h-19.329c-2.761 0-5 2.238-5 5s2.239 5 5 5h4.625v29.999c0 2.762 2.239 5 5 5s5-2.238 5-5v-29.999h4.704c2.761 0 5-2.238 5-5s-2.239-5-5-5z"/><path d="m188.854 328.657c-12.406 0-22.5 10.094-22.5 22.5s10.093 22.499 22.5 22.499 22.5-10.093 22.5-22.499-10.093-22.5-22.5-22.5zm0 34.999c-6.892 0-12.5-5.607-12.5-12.499 0-6.893 5.607-12.5 12.5-12.5s12.5 5.607 12.5 12.5c0 6.892-5.607 12.499-12.5 12.499z"/></g></g><g><path d="m463.346 156.233h24.632v348.271h-24.632z" fill="#e5e1e5"/></g><g><path d="m349.133 94.042h-186.266c-1.154 0-2.232.573-2.877 1.53l-16.028 23.766c-1.555 2.305.097 5.411 2.877 5.411h218.323c2.78 0 4.432-3.106 2.877-5.411l-16.028-23.766c-.645-.956-1.724-1.53-2.878-1.53z" fill="#9e939d"/></g><g><path d="m318.361 124.749c8.109-12.003 12.844-26.472 12.844-42.048 0-41.535-33.67-75.205-75.205-75.205s-75.205 33.67-75.205 75.205c0 14.13 3.897 27.351 10.675 38.645l2.27 3.403z" fill="#fdb441"/></g><g><path d="m331.209 82.706c0 15.567-4.744 30.042-12.853 42.046h-24.548c8.109-12.004 12.853-26.478 12.853-42.046 0-37.356-27.228-68.347-62.93-74.206 3.994-.662 8.087-1.004 12.268-1.004 41.539 0 75.21 33.672 75.21 75.21z" fill="#fea613"/></g><g><path d="m24.022 156.233h463.956v41.187h-463.956z" fill="#5f99d7"/></g><g><path d="m463.346 156.233h24.632v41.187h-24.632z" fill="#3c87d0"/></g><g><g><path d="m493.707 151.402c-.011-.013-.018-.027-.029-.04l-78.985-92.449c-4.206-4.923-10.333-7.747-16.808-7.747h-65.41c-3.917-9.497-9.61-18.266-16.926-25.855-2.873-2.981-7.619-3.069-10.6-.194-2.981 2.873-3.068 7.618-.195 10.6 12.223 12.681 18.955 29.366 18.955 46.984 0 12.256-3.262 24.121-9.465 34.552h-116.487c-6.194-10.416-9.466-22.357-9.466-34.552 0-37.334 30.374-67.708 67.709-67.708 7.61 0 15.078 1.251 22.195 3.72 3.909 1.356 8.182-.714 9.539-4.627 1.357-3.911-.714-8.182-4.626-9.539-8.701-3.016-17.821-4.547-27.108-4.547-34.439 0-64.017 21.166-76.44 51.167h-65.444c-6.476 0-12.602 2.824-16.808 7.747l-78.986 92.449c-.011.012-.018.027-.029.039-1.172 1.374-1.768 3.09-1.768 4.856v348.245c0 4.141 3.356 7.497 7.497 7.497h55.892c4.14 0 7.497-3.356 7.497-7.497s-3.356-7.497-7.497-7.497h-48.396v-292.09h448.963v292.091h-365.75c-4.14 0-7.497 3.356-7.497 7.497s3.356 7.497 7.497 7.497h373.247c4.14 0 7.497-3.356 7.497-7.497 0 0 0-348.245 0-348.271 0-1.7-.675-3.532-1.768-4.831zm-157.169-49.863h10.454l10.599 15.714h-26.444c2.325-5.049 4.132-10.308 5.391-15.714zm-155.684 15.714h-26.445l10.599-15.714h10.464c1.26 5.403 3.062 10.668 5.382 15.714zm-72.146-48.6c1.353-1.584 3.324-2.493 5.408-2.493h60.847c-1.09 5.346-1.664 10.878-1.664 16.541 0 1.284.041 2.565.1 3.844h-10.531c-3.651 0-7.05 1.808-9.093 4.835l-16.029 23.767c-2.272 3.37-2.498 7.693-.59 11.281s5.619 5.818 9.683 5.818h218.323c4.064 0 7.775-2.229 9.683-5.818s1.682-7.911-.591-11.282l-16.028-23.766c-2.042-3.027-5.441-4.834-9.093-4.834h-10.53c.059-1.278.098-2.558.098-3.844 0-5.615-.573-11.148-1.666-16.541h60.848c2.084 0 4.055.909 5.409 2.493l68.42 80.083h-431.425zm371.774 121.27h-448.964v-26.194h448.963v26.194z"/></g></g></g></svg>