<svg id="Layer_1" enable-background="new 0 0 512.01 512.01" height="512" viewBox="0 0 512.01 512.01" width="512" xmlns="http://www.w3.org/2000/svg"><g><g><g><g><path d="m381.116 90.768v206.919c0 21.48-17.413 38.892-38.892 38.892h-295.822c-21.48 0-38.892-17.413-38.892-38.892v-206.919c0-21.48 17.413-38.892 38.892-38.892h295.822c21.48 0 38.892 17.412 38.892 38.892z" fill="#ff5e57"/><path d="m342.224 51.876h-30c21.48 0 38.892 17.413 38.892 38.892v206.919c0 21.48-17.413 38.892-38.892 38.892h30c21.48 0 38.892-17.413 38.892-38.892v-206.919c.001-21.479-17.412-38.892-38.892-38.892z" fill="#f7372f"/><path d="m266.897 165.867h-44.223v-44.224h-56.722v44.224h-44.223v56.721h44.223v44.224h56.722v-44.224h44.223z" fill="#fff6db"/></g></g><g><g><path d="m427.445 255.161-23.722-20.528c-5.093-4.407-8.02-10.81-8.02-17.545v-7.768h-44.511v7.768c0 6.735-2.927 13.138-8.02 17.546l-23.722 20.528c-4.742 4.104-7.467 10.066-7.467 16.338v120.406c0 11.933 9.673 21.606 21.606 21.606h79.716c11.933 0 21.606-9.673 21.606-21.606v-120.407c.002-6.272-2.723-12.234-7.466-16.338z" fill="#cff5ff"/><path d="m427.445 255.161-23.722-20.528c-5.093-4.407-8.02-10.81-8.02-17.545v-7.768h-30v7.768c0 6.735 2.927 13.138 8.02 17.545l23.722 20.528c4.742 4.104 7.468 10.066 7.468 16.338v120.406c0 11.933-9.673 21.606-21.606 21.606h30c11.933 0 21.606-9.673 21.606-21.606v-120.406c0-6.272-2.725-12.234-7.468-16.338z" fill="#b8f0ff"/><path d="m397.056 368.241h-47.216c-4.424 0-8.011-3.587-8.011-8.011v-61.4c0-4.424 3.587-8.011 8.011-8.011h47.216c4.424 0 8.011 3.587 8.011 8.011v61.4c0 4.425-3.586 8.011-8.011 8.011z" fill="#ff8a85"/><path d="m409.352 209.297h-71.807v-25.249c0-5.15 4.175-9.324 9.324-9.324h53.159c5.15 0 9.324 4.175 9.324 9.324z" fill="#ff8a85"/><path d="m400.028 174.723h-30c5.149 0 9.324 4.175 9.324 9.324v25.25h30v-25.25c0-5.149-4.175-9.324-9.324-9.324z" fill="#ff5e57"/></g><g><path d="m501.07 392.691-98.77 98.77c-4.586 4.586-12.022 4.586-16.609 0l-44.607-44.607c-4.586-4.586-4.586-12.022 0-16.609l98.77-98.77c4.586-4.586 12.022-4.586 16.609 0l44.607 44.607c4.586 4.587 4.586 12.023 0 16.609z" fill="#36b8ff"/><path d="m501.07 376.082-44.607-44.607c-4.586-4.586-12.022-4.586-16.609 0l-6.696 6.696 37.911 37.911c4.586 4.586 4.586 12.022 0 16.609l-92.074 92.074 6.696 6.696c4.586 4.586 12.022 4.586 16.609 0l98.77-98.77c4.586-4.587 4.586-12.022 0-16.609z" fill="#0aa5fa"/></g></g><g><path d="m179.629 307.859c-33.491 0-60.641 27.15-60.641 60.641s27.15 60.641 60.641 60.641 60.641-27.15 60.641-60.641-27.15-60.641-60.641-60.641zm0 86.152c-14.067 0-25.511-11.444-25.511-25.511s11.445-25.511 25.511-25.511 25.511 11.444 25.511 25.511-11.444 25.511-25.511 25.511z" fill="#cff5ff"/><g><path d="m238.951 296.496v120.214c0 7.614 16.347 13.786 36.513 13.786 20.165 0 36.513-6.172 36.513-13.786v-120.214z" fill="#ffe354"/><path d="m311.977 420.202c-1.47 40.99-32.351 66.908-55.144 75.363-30.744 11.405-55.879 8.639-55.879 8.639v-120.213s26.373 5.667 55.879-8.639c24.263-11.764 55.144-46.321 55.144-78.856z" fill="#fff6db"/><path d="m281.977 356.834v63.369c-1.47 40.99-32.351 66.908-55.144 75.363-9.327 3.46-18.13 5.61-25.879 6.934v1.705s25.136 2.766 55.879-8.639c22.793-8.455 53.674-34.373 55.144-75.363v-123.707c0 21.66-13.691 44.207-30 60.338z" fill="#ffeebd"/><ellipse cx="275.464" cy="296.496" fill="#ffefc2" rx="36.513" ry="13.786"/></g></g></g><g fill="#060606"><path d="m222.674 114.144h-56.722c-4.143 0-7.5 3.358-7.5 7.5v36.723h-36.724c-4.143 0-7.5 3.358-7.5 7.5v56.722c0 4.142 3.357 7.5 7.5 7.5h36.724v36.723c0 4.142 3.357 7.5 7.5 7.5h56.722c4.143 0 7.5-3.358 7.5-7.5v-36.723h36.724c4.143 0 7.5-3.358 7.5-7.5v-56.722c0-4.142-3.357-7.5-7.5-7.5h-36.724v-36.723c0-4.143-3.358-7.5-7.5-7.5zm36.724 59.223v41.722h-36.724c-4.143 0-7.5 3.358-7.5 7.5v36.723h-41.722v-36.723c0-4.142-3.357-7.5-7.5-7.5h-36.724v-41.722h36.724c4.143 0 7.5-3.358 7.5-7.5v-36.723h41.722v36.723c0 4.142 3.357 7.5 7.5 7.5z"/><path d="m506.374 370.779-44.607-44.606c-4.819-4.819-12.848-6.788-19.354-4.761v-49.912c0-8.454-3.667-16.476-10.06-22.009l-23.722-20.528c-3.449-2.985-5.428-7.313-5.428-11.874v-.291h6.147c4.143 0 7.5-3.358 7.5-7.5v-25.25c0-9.277-7.547-16.824-16.824-16.824h-11.411v-76.456c0-25.581-20.812-46.392-46.392-46.392h-73.115c.917-23.609-17.562-44.376-41.631-44.376h-66.327c-24.239 0-42.312 20.757-41.633 44.376h-73.115c-25.581 0-46.393 20.812-46.393 46.392v25.232c0 9.697 15 9.697 15 0v-25.232c0-17.31 14.083-31.392 31.393-31.392h295.822c17.31 0 31.392 14.083 31.392 31.392v76.456h-26.747c-9.277 0-16.824 7.547-16.824 16.824v25.25c0 4.142 3.357 7.5 7.5 7.5h6.148v.291c0 4.562-1.979 8.889-5.428 11.874l-23.722 20.529c-6.393 5.533-10.06 13.554-10.06 22.008v8.797c-8.331-3.442-19.248-5.085-29.771-5.085-21.068 0-43.722 6.583-44 21.021-.003.082-.013.161-.013.244l-.083 30.521c-12.47-16.182-32.026-26.637-53.989-26.637-22.891 0-43.166 11.357-55.528 28.72h-74.697c-17.31 0-31.393-14.083-31.393-31.392v-141.689c0-9.697-15-9.697-15 0v141.687c0 25.581 20.812 46.392 46.393 46.392h66.628c-2.923 7.587-4.543 15.816-4.543 24.421 0 37.573 30.568 68.141 68.142 68.141 5.457 0 10.837-.656 16.074-1.924v69.488c0 8.241 9.436 7.801 14.923 7.801 54.867 0 111.634-34.981 111.101-95.09 6.392 3.813 13.738 4.434 20.985 4.094-9.534 7.642-13.535 21.542-3.932 31.146l44.607 44.607c7.424 7.424 19.792 7.424 27.216 0l12.327-12.327c6.857-6.857-3.749-17.462-10.607-10.606l-12.327 12.327c-2 1.657-4.001 1.657-6.001 0l-44.607-44.607c-1.655-1.655-1.654-4.348 0-6.002l98.77-98.769c2.001-1.658 4.001-1.658 6.002 0l44.607 44.606c1.655 1.655 1.655 4.348 0 6.002l-58.847 58.847c-6.857 6.857 3.749 17.462 10.607 10.606l58.847-58.847c7.502-7.502 7.502-19.711 0-27.214zm-371.857-329.146c0-14.686 11.947-26.633 26.633-26.633h66.327c16.007 0 27.216 14.047 26.633 29.376h-119.593zm210.528 142.414c0-1.005.818-1.824 1.824-1.824h53.158c1.006 0 1.824.818 1.824 1.824v17.75h-56.807v-17.75zm-100.309 185.755c.488-.991.771-2.102.774-3.282l.146-53.541c16.564 6.53 38.075 6.541 54.877 1.153-2.827 8.244-7.476 16.769-13.756 25.048-9.73 12.829-22.429 23.829-33.967 29.423-2.747 1.332-5.464 2.465-8.135 3.445.039-.747.047-1.497.061-2.246zm29.978-79.592c15.825 0 25.588 3.942 28.434 6.286-11.943 9.836-44.934 9.826-56.868 0 2.846-2.344 12.609-6.286 28.434-6.286zm-98.085 131.431c-29.303 0-53.142-23.839-53.142-53.141s23.839-53.141 53.142-53.141 53.142 23.839 53.142 53.141c0 2.585-.202 5.162-.571 7.706-8.583 1.502-15.886 1.516-20.793 1.209.797-2.838 1.233-5.825 1.233-8.914 0-18.203-14.809-33.011-33.011-33.011s-33.011 14.809-33.011 33.011 14.809 33.011 33.011 33.011c5.833 0 11.314-1.527 16.074-4.193v21.844c-5.177 1.641-10.574 2.478-16.074 2.478zm0-35.13c-9.932 0-18.011-8.08-18.011-18.011s8.079-18.011 18.011-18.011 18.011 8.08 18.011 18.011-8.079 18.011-18.011 18.011zm127.098 33.553c-1.897 50.395-50.5 76.802-96.023 76.923v-104.564c10.96.681 30.546-.09 51.652-10.323 14.43-6.997 32.082-22.191 44.371-40.95zm29.863-14.053c-7.777 0-14.105-6.328-14.105-14.106v-120.406c0-4.097 1.777-7.985 4.876-10.666l23.722-20.528c6.743-5.836 10.611-14.298 10.611-23.217v-.268h29.511v.268c0 8.918 3.868 17.38 10.611 23.217l23.722 20.528c3.099 2.682 4.876 6.57 4.876 10.667v61.811l-14.846 14.846v-49.325c0-8.553-6.958-15.511-15.511-15.511h-47.216c-8.553 0-15.511 6.958-15.511 15.511v61.399c0 8.553 6.958 15.511 15.511 15.511h35.141l-30.27 30.27h-21.122zm63.467-45.27h-47.216c-.281 0-.511-.229-.511-.511v-61.399c0-.282.229-.511.511-.511h47.216c.281 0 .511.229.511.511v61.399c-.001.282-.23.511-.511.511z"/><path d="m374.559 443.307c9.652 0 9.668-15 0-15-9.652 0-9.668 15 0 15z"/><path d="m398.178 404.688c-9.652 0-9.668 15 0 15 9.652 0 9.668-15 0-15z"/><path d="m421.797 381.069c-9.652 0-9.668 15 0 15 9.652 0 9.668-15 0-15z"/><path d="m445.416 357.45c-9.652 0-9.668 15 0 15 9.652 0 9.668-15 0-15z"/><path d="m394.964 463.712c9.652 0 9.668-15 0-15-9.652 0-9.668 15 0 15z"/><path d="m418.583 425.093c-9.652 0-9.668 15 0 15 9.652 0 9.668-15 0-15z"/><path d="m442.202 416.474c9.652 0 9.668-15 0-15-9.651 0-9.667 15 0 15z"/><path d="m465.821 377.855c-9.652 0-9.668 15 0 15 9.652 0 9.668-15 0-15z"/></g></g></svg>