<svg xmlns="http://www.w3.org/2000/svg" width="460.422" height="375.281" viewBox="0 0 460.422 375.281">
  <g id="senior" transform="translate(0 -0.211)">
    <path id="Path_1" data-name="Path 1" d="M209.086,249.039c-.066-.105-.176-.16-.246-.262a89.43,89.43,0,0,0-38.273-26.4V208.363a70.162,70.162,0,0,0,20.563-34.77,10.384,10.384,0,0,0,2,.2c7.773,0,13.863-7.875,13.863-17.926a23.041,23.041,0,0,0-.945-6.5V126.152A83.066,83.066,0,0,0,162.168,52.98a24.658,24.658,0,0,0,.688-5.441c0-17.277-17.863-31.332-39.828-31.332S83.2,30.262,83.2,47.539a24.687,24.687,0,0,0,.688,5.441,83.078,83.078,0,0,0-43.875,73.172v23.211a23.041,23.041,0,0,0-.945,6.5c0,10.055,6.09,17.926,13.867,17.926a10.736,10.736,0,0,0,2-.2,70.127,70.127,0,0,0,20.559,34.77v.145H45.9a3.958,3.958,0,0,0-2.68,1.07H38.172a2.928,2.928,0,1,0,0,5.855H41.9V223.3h-3.73a2.928,2.928,0,1,0,0,5.855H41.9v8.785h-3.73a2.928,2.928,0,1,0,0,5.855h3.6c-1.582,1.6-3.09,3.262-4.547,4.969-.074.1-.184.156-.246.266-.008.012-.008.027-.016.039A88.68,88.68,0,0,0,16,306.391v64.922a4,4,0,0,0,4,4H226.063a4,4,0,0,0,4-4V306.4a88.69,88.69,0,0,0-20.957-57.32A.209.209,0,0,1,209.086,249.039Zm0,0" fill="#e6e7e8"/>
    <path id="Path_2" data-name="Path 2" d="M436.2,245.6a3.4,3.4,0,0,0-.367-.383,89.272,89.272,0,0,0-34.906-22.668v-11.09A70.144,70.144,0,0,0,421.488,176.7a10.7,10.7,0,0,0,1.992.2c7.777,0,13.867-7.875,13.867-17.93,0-10-6.027-17.828-13.742-17.91.6.008-.734-26.6-.895-27.531a72.154,72.154,0,0,0-21.078-40.1c-.535-.508-1.016-1.062-1.57-1.555a2.923,2.923,0,0,0-.375-.215,69.792,69.792,0,0,0-92.59,0,3.809,3.809,0,0,0-.387.223c-.562.5-1.051,1.066-1.6,1.582a72.087,72.087,0,0,0-20.277,36.156c-2.359,10.375-1.648,20.9-1.648,31.441-7.719.07-13.754,7.906-13.754,17.914,0,10.059,6.086,17.93,13.863,17.93a10.774,10.774,0,0,0,2-.2,70.127,70.127,0,0,0,20.559,34.77v.145H276.266a3.973,3.973,0,0,0-2.687,1.074h-5.051a2.928,2.928,0,0,0,0,5.855h3.734v7.867h-3.734a2.928,2.928,0,0,0,0,5.855h3.734v8.785h-3.734a2.928,2.928,0,0,0,0,5.855h.824a88.74,88.74,0,0,0-22.992,59.668v64.922a4,4,0,0,0,4,4H456.422a4,4,0,0,0,4-4V306.57A88.743,88.743,0,0,0,436.2,245.6Zm0,0" fill="#e6e7e8"/>
    <path id="Path_3" data-name="Path 3" d="M63.484,209.234V196.516H29.895V229.3A84.994,84.994,0,0,1,63.484,209.234Zm0,0" fill="#6dc9f7"/>
    <path id="Path_4" data-name="Path 4" d="M107.027,31.145a78.661,78.661,0,0,1,34.434,7.887,21.373,21.373,0,0,0,1.391-7.484c0-15.094-16.039-27.328-35.828-27.328S71.2,16.453,71.2,31.547a21.288,21.288,0,0,0,1.395,7.484A78.636,78.636,0,0,1,107.027,31.145Zm0,0" fill="#d4fbff"/>
    <path id="Path_5" data-name="Path 5" d="M107.027,31.145a78.661,78.661,0,0,1,34.434,7.887,21.373,21.373,0,0,0,1.391-7.484c0-15.094-16.039-27.328-35.828-27.328S71.2,16.453,71.2,31.547a21.288,21.288,0,0,0,1.395,7.484A78.636,78.636,0,0,1,107.027,31.145Zm0,0" fill="#ccd1d9"/>
    <path id="Path_6" data-name="Path 6" d="M107.027,31.145A79.016,79.016,0,0,0,28.012,110.16v23.848c1.574-4.754,4.961-8.07,8.922-8.07a7.808,7.808,0,0,1,4.992,1.977A79.263,79.263,0,0,1,59.3,89.973,36.049,36.049,0,0,1,86.957,77.051H127.1a36.061,36.061,0,0,1,27.656,12.922,79.336,79.336,0,0,1,17.375,37.941,7.8,7.8,0,0,1,4.992-1.977c3.961,0,7.352,3.313,8.918,8.07V110.16A79.016,79.016,0,0,0,107.027,31.145Zm0,0" fill="#ccd1d9"/>
    <path id="Path_7" data-name="Path 7" d="M177.121,125.938a7.808,7.808,0,0,0-4.992,1.977,79.473,79.473,0,0,1,1.094,12.949,66.754,66.754,0,0,1-.937,11.074,7.721,7.721,0,0,0,4.836,1.855c5.445,0,9.863-6.234,9.863-13.926S182.57,125.938,177.121,125.938Zm0,0" fill="#f0d0b4"/>
    <path id="Path_8" data-name="Path 8" d="M40.828,140.867a79.044,79.044,0,0,1,1.1-12.949,7.8,7.8,0,0,0-4.992-1.977c-5.449,0-9.867,6.238-9.867,13.93S31.484,153.8,36.934,153.8a7.738,7.738,0,0,0,4.836-1.855A66.408,66.408,0,0,1,40.828,140.867Zm0,0" fill="#f0d0b4"/>
    <path id="Path_9" data-name="Path 9" d="M124.961,205.3h-2.977a64.374,64.374,0,0,1-29.914,0H89.1A85.1,85.1,0,0,0,4,290.4v64.922H210.059V290.4A85.1,85.1,0,0,0,124.961,205.3Zm0,0" fill="#fa759e"/>
    <path id="Path_10" data-name="Path 10" d="M121.984,205.3a64.374,64.374,0,0,1-29.914,0H89.1a86.093,86.093,0,0,0-13.738,1.109v148.91H138.7V206.414a86.044,86.044,0,0,0-13.734-1.109Zm0,0" fill="#d4fbff"/>
    <path id="Path_11" data-name="Path 11" d="M144.258,218.395a186.952,186.952,0,0,1-40.809,3.664v27.1h42.09V218A7.149,7.149,0,0,1,144.258,218.395Zm0,0" fill="#6dc9f7"/>
    <path id="Path_12" data-name="Path 12" d="M107.027,207.066a65.928,65.928,0,0,1-43.539-16.355v19.9A8.308,8.308,0,0,0,69.8,218.4a186.508,186.508,0,0,0,74.453,0,8.3,8.3,0,0,0,6.313-7.789v-19.9A65.938,65.938,0,0,1,107.027,207.066Zm0,0" fill="#6dc9f7"/>
    <path id="Path_13" data-name="Path 13" d="M154.758,89.977A36.055,36.055,0,0,0,127.1,77.055H86.957A36.055,36.055,0,0,0,59.3,89.977a79.317,79.317,0,0,0-18.473,50.891,66.2,66.2,0,0,0,132.4,0A79.357,79.357,0,0,0,154.758,89.977Zm0,0" fill="#f0d0b4"/>
    <path id="Path_14" data-name="Path 14" d="M91.617,106.953H65.629a14.857,14.857,0,0,0-14.855,14.855v10.141A17.249,17.249,0,0,0,68.02,149.2H84.551a17.252,17.252,0,0,0,17.25-17.25V117.133A10.187,10.187,0,0,0,91.617,106.953Zm0,0" fill="#fff"/>
    <path id="Path_15" data-name="Path 15" d="M148.43,106.953H118.957a6.7,6.7,0,0,0-6.7,6.7v18.3a17.251,17.251,0,0,0,17.246,17.25h16.531a17.252,17.252,0,0,0,17.25-17.25V121.809A14.855,14.855,0,0,0,148.43,106.953Zm0,0" fill="#fff"/>
    <path id="Path_16" data-name="Path 16" d="M144.781,157.77c-3.25,0-5.883,1.66-5.883,3.7s2.633,3.707,5.883,3.707,5.879-1.66,5.879-3.707S148.027,157.77,144.781,157.77Zm0,0" fill="#ffd7e5"/>
    <path id="Path_17" data-name="Path 17" d="M69.273,156.945c-3.25,0-5.883,1.66-5.883,3.7s2.633,3.707,5.883,3.707,5.879-1.66,5.879-3.707S72.52,156.945,69.273,156.945Zm0,0" fill="#ffd7e5"/>
    <path id="Path_18" data-name="Path 18" d="M107.027,182.449a20.771,20.771,0,0,1-16.363-7.723,4.084,4.084,0,0,1,6.6-4.809,12.548,12.548,0,0,0,9.758,4.367,13.107,13.107,0,0,0,9.793-4.41,4.082,4.082,0,1,1,6.512,4.926A21.276,21.276,0,0,1,107.027,182.449Zm0,0" fill="#fa759e"/>
    <path id="Path_19" data-name="Path 19" d="M296.777,208.555v-8.945H260.262v29.859A84.868,84.868,0,0,1,296.777,208.555Zm0,0" fill="#fa759e"/>
    <path id="Path_20" data-name="Path 20" d="M380.934,209.41v7.219a8.308,8.308,0,0,1-6.316,7.789,186.508,186.508,0,0,1-74.453,0,8.3,8.3,0,0,1-6.316-7.789V209.41a85.121,85.121,0,0,0-59.488,81.16v64.922H440.422V290.57A85.123,85.123,0,0,0,380.934,209.41Zm0,0" fill="#6dc9f7"/>
    <path id="Path_21" data-name="Path 21" d="M421.184,236.707a84.748,84.748,0,0,0-40.559-18.141,8.314,8.314,0,0,1-6.012,5.852,186.508,186.508,0,0,1-74.453,0,6.815,6.815,0,0,1-1.352-.434,85.1,85.1,0,0,0-52.453,78.586v52.922H440.414V290.57A84.661,84.661,0,0,0,421.184,236.707Zm0,0" fill="#6dc9f7"/>
    <path id="Path_22" data-name="Path 22" d="M374.617,224.418a186.522,186.522,0,0,1-41.633,3.645v27.121h42.09V224.277C374.922,224.316,374.773,224.387,374.617,224.418Zm0,0" fill="#fa759e"/>
    <path id="Path_23" data-name="Path 23" d="M337.387,210.16a65.949,65.949,0,0,1-43.5-16.312c-.012.148-.043.285-.043.445v22.34a8.308,8.308,0,0,0,6.316,7.789,186.508,186.508,0,0,0,74.453,0,8.3,8.3,0,0,0,6.316-7.789v-22.34c0-.156-.039-.3-.047-.445A65.972,65.972,0,0,1,337.387,210.16Zm0,0" fill="#6dc9f7"/>
    <path id="Path_24" data-name="Path 24" d="M337.387,210.16a65.949,65.949,0,0,1-43.5-16.312c-.012.148-.043.285-.043.445v22.34a8.308,8.308,0,0,0,6.316,7.789,186.508,186.508,0,0,0,74.453,0,8.3,8.3,0,0,0,6.316-7.789v-22.34c0-.156-.039-.3-.047-.445A65.972,65.972,0,0,1,337.387,210.16Zm0,0" fill="#fa759e"/>
    <path id="Path_25" data-name="Path 25" d="M407.484,129.035a7.42,7.42,0,0,0-3.895,1.137v13.785a66.384,66.384,0,0,1-.941,11.078,7.73,7.73,0,0,0,4.836,1.855c5.449,0,9.863-6.238,9.863-13.93S412.934,129.035,407.484,129.035Zm0,0" fill="#f0d0b4"/>
    <path id="Path_26" data-name="Path 26" d="M337.387,210.16a66.2,66.2,0,0,1-66.2-66.2V108.285a66.2,66.2,0,0,1,132.4,0v35.676A66.2,66.2,0,0,1,337.387,210.16Zm0,0" fill="#f0d0b4"/>
    <path id="Path_27" data-name="Path 27" d="M321.977,106.953H295.988a14.857,14.857,0,0,0-14.855,14.855v10.141a17.251,17.251,0,0,0,17.246,17.25H314.91a17.249,17.249,0,0,0,17.25-17.25V117.133A10.184,10.184,0,0,0,321.977,106.953Zm0,0" fill="#fff"/>
    <path id="Path_28" data-name="Path 28" d="M378.793,106.953H349.32a6.7,6.7,0,0,0-6.7,6.7v18.3a17.249,17.249,0,0,0,17.246,17.25H376.4a17.249,17.249,0,0,0,17.25-17.25V121.809A14.86,14.86,0,0,0,378.793,106.953Zm0,0" fill="#fff"/>
    <path id="Path_29" data-name="Path 29" d="M271.188,143.957V130.172a7.42,7.42,0,0,0-3.895-1.137c-5.449,0-9.863,6.234-9.863,13.926s4.414,13.93,9.863,13.93a7.738,7.738,0,0,0,4.836-1.855A66.384,66.384,0,0,1,271.188,143.957Zm0,0" fill="#f0d0b4"/>
    <path id="Path_30" data-name="Path 30" d="M381.4,58.852a37.728,37.728,0,0,0,22.188,57.59v-8.16A66.006,66.006,0,0,0,381.4,58.852Zm0,0" fill="#ccd1d9"/>
    <path id="Path_31" data-name="Path 31" d="M293.375,58.852a37.722,37.722,0,0,1-22.184,57.59v-8.16A66,66,0,0,1,293.375,58.852Zm0,0" fill="#ccd1d9"/>
    <g id="Group_1" data-name="Group 1">
      <path id="Path_32" data-name="Path 32" d="M154.566,206.453V192.367a70.162,70.162,0,0,0,20.563-34.77,10.384,10.384,0,0,0,2,.2c7.773,0,13.863-7.875,13.863-17.926a23.041,23.041,0,0,0-.945-6.5V110.156A83.077,83.077,0,0,0,146.168,36.98a24.658,24.658,0,0,0,.688-5.441c0-17.273-17.863-31.328-39.828-31.328S67.2,14.266,67.2,31.539a24.687,24.687,0,0,0,.688,5.441,83.084,83.084,0,0,0-43.875,73.176v23.211a23.041,23.041,0,0,0-.945,6.5c0,10.051,6.09,17.926,13.867,17.926a10.736,10.736,0,0,0,2-.2,70.127,70.127,0,0,0,20.559,34.77v.145H29.9a3.968,3.968,0,0,0-2.684,1.07H22.168a2.928,2.928,0,1,0,0,5.855H25.9V207.3h-3.73a2.928,2.928,0,1,0,0,5.855H25.9v8.785h-3.73a2.928,2.928,0,1,0,0,5.855h3.68A88.721,88.721,0,0,0,0,290.4V355.32a4,4,0,0,0,4,4H210.059a4,4,0,0,0,4-4V290.4A89.191,89.191,0,0,0,154.566,206.453Zm29.055,28.129a47.225,47.225,0,0,0-18.484,37.59v79.156H142.7V259.7a4,4,0,0,0,6.84-2.812V220.238a12.584,12.584,0,0,0,4.246-5.527A81.31,81.31,0,0,1,183.621,234.582Zm-76.176,10.574v-3.711h34.09v3.711Zm26.516-20.949c1.527-.223,3.051-.477,4.574-.734,1-.168,2.008-.293,3-.48v10.453h-34.09v-7.289a189.33,189.33,0,0,0,23.617-1.582C132.027,224.449,133,224.34,133.961,224.207Zm12.605-25.352v11.75a4.328,4.328,0,0,1-3.109,3.867q-4.84.984-9.762,1.707c-.07.012-.145.016-.215.027a185.271,185.271,0,0,1-29.957,1.852c-.035,0-.066.02-.1.02a182.027,182.027,0,0,1-32.82-3.605,4.327,4.327,0,0,1-3.113-3.867v-11.75c.09.063.191.113.289.18.07.047.152.09.223.141,1.617,1.082,3.281,2.082,4.977,3.027.551.309,1.113.59,1.672.883q1.922,1,3.9,1.879c.648.289,1.293.586,1.953.852q2.326.955,4.715,1.73c.488.16.973.332,1.465.484,1.8.543,3.621,1.008,5.461,1.406.707.156,1.426.277,2.145.41q2.145.393,4.324.66c.684.082,1.363.172,2.051.23,2.113.191,4.234.324,6.375.324s4.262-.129,6.375-.324c.691-.062,1.371-.152,2.055-.23q2.168-.27,4.32-.66c.719-.133,1.438-.258,2.148-.41,1.832-.4,3.641-.859,5.434-1.4.508-.156,1-.332,1.508-.5,1.586-.52,3.148-1.09,4.688-1.723.664-.27,1.313-.566,1.965-.859q1.969-.873,3.883-1.871c.566-.3,1.129-.578,1.688-.891,1.688-.941,3.344-1.937,4.953-3.016.082-.055.164-.1.246-.152S146.477,198.918,146.566,198.855ZM60.277,214.707A12.257,12.257,0,0,0,69,222.313c.785.16,1.57.27,2.355.422V351.328H48.922V272.172a47.234,47.234,0,0,0-18.488-37.59A81.351,81.351,0,0,1,60.277,214.707Zm55.984-101.059a2.7,2.7,0,0,1,2.7-2.7h29.477A10.867,10.867,0,0,1,159.289,121.8v10.141a13.267,13.267,0,0,1-13.25,13.25H129.508a13.261,13.261,0,0,1-13.246-13.25Zm32.172-10.7H118.957a10.707,10.707,0,0,0-10.7,10.7v4.324H105.8v-.84a14.194,14.194,0,0,0-14.18-14.18H65.629a18.755,18.755,0,0,0-13.637,5.906A75.1,75.1,0,0,1,62.371,92.547a31.98,31.98,0,0,1,24.59-11.492h40.145a31.955,31.955,0,0,1,24.586,11.492,75.278,75.278,0,0,1,10.375,16.3A18.771,18.771,0,0,0,148.434,102.949Zm-50.637,29a13.267,13.267,0,0,1-13.25,13.25H68.016a13.261,13.261,0,0,1-13.246-13.25V121.809a10.867,10.867,0,0,1,10.855-10.855H91.613a6.188,6.188,0,0,1,6.18,6.18v14.816Zm78.859,17.8c.039-.32.055-.637.09-.953.066-.57.117-1.148.168-1.727.191-2.082.316-4.156.316-6.207s-.105-4.156-.273-6.273c-.074-.957-.184-1.9-.289-2.855-.031-.27-.047-.531-.078-.8a3.714,3.714,0,0,0,.441-.941h.031a3.2,3.2,0,0,1,.883.082c.082.02.172.059.254.086a4.064,4.064,0,0,1,.793.352,2.7,2.7,0,0,1,.223.164,8.842,8.842,0,0,1,3.027,4.586c.035.1.1.172.137.27a15.221,15.221,0,0,1,.609,4.34C182.988,146.043,179.637,150.293,176.656,149.754ZM75.313,33.422a15.251,15.251,0,0,1-.113-1.879c0-12.863,14.277-23.328,31.828-23.328s31.828,10.465,31.828,23.328a15.251,15.251,0,0,1-.113,1.879c-1.941-.809-3.926-1.469-5.914-2.121-.418-.137-.816-.312-1.234-.441-2.285-.711-4.605-1.285-6.937-1.789-.336-.074-.656-.18-.992-.25-2.324-.469-4.68-.8-7.051-1.078-.4-.043-.781-.133-1.176-.172-2.777-.277-5.578-.43-8.41-.43a83.3,83.3,0,0,0-8.406.43c-.4.039-.777.129-1.168.172-2.379.273-4.738.609-7.066,1.078-.336.07-.66.176-.992.25-2.332.5-4.652,1.078-6.93,1.789-.43.129-.836.313-1.266.449C79.223,31.961,77.246,32.617,75.313,33.422Zm-43.3,76.738a75.014,75.014,0,1,1,150.027,0V123.1a11,11,0,0,0-1.828-.7c-.238-.066-.484-.109-.727-.16a11.121,11.121,0,0,0-2.059-.262c-.105,0-.2-.039-.3-.039-.051,0-.094.012-.137.012a10.7,10.7,0,0,0-1.449.137c-.145.02-.293.02-.434.047-.012,0-.027,0-.039,0-.1-.445-.238-.887-.348-1.332-.215-.863-.43-1.727-.676-2.582-.488-1.73-1.02-3.441-1.613-5.129-.23-.641-.48-1.27-.723-1.9q-.838-2.209-1.8-4.371c-.289-.648-.582-1.3-.891-1.937-.879-1.84-1.8-3.664-2.816-5.437-.113-.2-.234-.379-.348-.57-.977-1.68-2.023-3.316-3.121-4.926-.324-.477-.648-.941-.984-1.414-1.242-1.754-2.535-3.473-3.914-5.129A39.944,39.944,0,0,0,127.1,73.055H86.957A39.952,39.952,0,0,0,56.23,87.41c-1.383,1.656-2.672,3.375-3.918,5.133-.332.465-.656.93-.977,1.4-1.1,1.617-2.152,3.258-3.133,4.945-.105.188-.23.363-.336.551-1.016,1.777-1.937,3.6-2.82,5.441-.309.645-.6,1.293-.891,1.941-.641,1.434-1.234,2.883-1.793,4.348-.25.656-.512,1.316-.746,1.984-.586,1.66-1.109,3.348-1.59,5.047-.246.879-.473,1.762-.691,2.652-.109.43-.234.855-.336,1.285-.012,0-.023,0-.035,0-.152-.027-.309-.027-.465-.051a10.759,10.759,0,0,0-1.41-.133c-.051,0-.1-.012-.148-.012-.113,0-.215.035-.324.039a11.074,11.074,0,0,0-2.031.258c-.25.051-.492.1-.738.164a11.5,11.5,0,0,0-1.828.7V110.16ZM37.4,149.754c-2.969.574-6.332-3.707-6.332-9.883a14.623,14.623,0,0,1,.719-4.559c.008-.02.02-.031.027-.051a11.859,11.859,0,0,1,1.3-2.746,8.4,8.4,0,0,1,.539-.707c.082-.1.164-.215.25-.312a6.244,6.244,0,0,1,.906-.793c.016-.012.031-.027.051-.043a4.462,4.462,0,0,1,.715-.371,3.491,3.491,0,0,1,.414-.18c.082-.027.172-.023.254-.043a3.357,3.357,0,0,1,.789-.074,3.977,3.977,0,0,0,.449.945c-.031.254-.047.5-.078.75-.105.969-.219,1.941-.293,2.918-.168,2.113-.277,4.2-.277,6.258,0,2.035.129,4.1.313,6.172.051.6.1,1.2.172,1.793C37.348,149.137,37.363,149.445,37.4,149.754Zm8.035-.7c-.113-.828-.238-1.656-.316-2.484-.172-1.883-.289-3.785-.289-5.711,0-2.055.105-4.1.27-6.129.086-1.023.258-2.07.387-3.105l1.285-.367v.684A21.274,21.274,0,0,0,68.016,153.2H84.547a21.275,21.275,0,0,0,21.25-21.25v-5.973h2.465v5.977a21.274,21.274,0,0,0,21.246,21.25h16.531a21.275,21.275,0,0,0,21.25-21.25v-.684l1.281.363c.129,1.027.3,2.066.391,3.086.168,2.039.27,4.09.27,6.152,0,1.93-.113,3.84-.289,5.727-.078.8-.2,1.609-.3,2.414a62.132,62.132,0,0,1-123.2.051Zm14.051,57.293c-.629.223-1.238.508-1.859.742-.754.285-1.5.594-2.242.895-1.453.6-2.895,1.219-4.32,1.895-.77.363-1.523.754-2.277,1.141-1.066.543-2.137,1.059-3.18,1.648V200.508H59.48v5.844Zm-25.59-5.84h3.715V217.77c-.285.2-.551.43-.828.633-.961.7-1.953,1.355-2.887,2.09ZM8,290.4a80.538,80.538,0,0,1,17.2-49.758,39.291,39.291,0,0,1,15.73,31.52v79.16H8Zm71.363,60.922V224.109a187.976,187.976,0,0,0,20.086,1.863v30.914a4,4,0,0,0,8,0v-3.734h5.727v3.734a4,4,0,0,0,8,0v-3.734h6.641v3.734a4,4,0,0,0,4,4,3.949,3.949,0,0,0,2.883-1.258V351.32H79.359Zm126.7,0H173.137v-79.16a39.288,39.288,0,0,1,15.727-31.52,80.505,80.505,0,0,1,17.2,49.758v60.922Zm0,0"/>
      <path id="Path_33" data-name="Path 33" d="M77.82,124.977a6.621,6.621,0,1,0,6.621,6.621A6.622,6.622,0,0,0,77.82,124.977Zm0,0" fill="#3a2c60"/>
      <path id="Path_34" data-name="Path 34" d="M136.23,124.977a6.621,6.621,0,1,0,6.621,6.621A6.618,6.618,0,0,0,136.23,124.977Zm0,0" fill="#3a2c60"/>
      <path id="Path_35" data-name="Path 35" d="M107.027,165.066a11.541,11.541,0,0,0,11.527-11.527,4,4,0,0,0-8,0,3.527,3.527,0,0,1-7.055,0,4,4,0,0,0-8,0A11.541,11.541,0,0,0,107.027,165.066Zm0,0" fill="#3a2c60"/>
      <path id="Path_36" data-name="Path 36" d="M131.012,119.836l12.965,2.254a4.155,4.155,0,0,0,.688.059,4,4,0,0,0,.68-7.941l-12.965-2.258a4,4,0,0,0-1.367,7.887Zm0,0" fill="#3a2c60"/>
      <path id="Path_37" data-name="Path 37" d="M81.672,111.949l-12.965,2.258a4,4,0,0,0,.68,7.941,4.05,4.05,0,0,0,.688-.059l12.965-2.254a4,4,0,0,0-1.367-7.887Zm0,0" fill="#3a2c60"/>
      <path id="Path_38" data-name="Path 38" d="M123.621,163.273c.1.047,10.105,4.988,12.227,12.613a2.008,2.008,0,0,0,1.926,1.465,2.1,2.1,0,0,0,.535-.074,2,2,0,0,0,1.391-2.465c-2.6-9.344-13.855-14.906-14.336-15.137a2,2,0,1,0-1.742,3.6Zm0,0" fill="#3a2c60"/>
      <path id="Path_39" data-name="Path 39" d="M74.621,177.277a2.1,2.1,0,0,0,.535.074,2,2,0,0,0,1.922-1.465c2.113-7.594,12.129-12.566,12.23-12.613a2,2,0,0,0-1.75-3.594c-.48.23-11.734,5.793-14.336,15.137A2,2,0,0,0,74.621,177.277Zm0,0" fill="#3a2c60"/>
      <path id="Path_40" data-name="Path 40" d="M340.98,351.492h-19.02a4,4,0,0,0,0,8h19.02a4,4,0,0,0,0-8Zm0,0" fill="#3a2c60"/>
      <path id="Path_41" data-name="Path 41" d="M420.387,229.867a3.8,3.8,0,0,0-.742-.777,89.3,89.3,0,0,0-34.711-22.469v-11.16a70.155,70.155,0,0,0,20.582-34.852,10.266,10.266,0,0,0,1.969.281c7.777,0,13.867-7.875,13.867-17.93,0-10-6.035-17.84-13.754-17.91v-16.77a70.543,70.543,0,0,0-.395-7.363c-.039-.367-.125-.727-.168-1.1-.25-2.066-.559-4.117-.988-6.125-.094-.445-.234-.879-.34-1.32-.441-1.91-.934-3.8-1.531-5.645-.187-.582-.422-1.137-.629-1.711-.586-1.664-1.2-3.312-1.9-4.918-.324-.738-.7-1.457-1.051-2.184-.664-1.375-1.336-2.738-2.086-4.062-.492-.875-1.031-1.715-1.559-2.566-.7-1.113-1.4-2.223-2.152-3.3-.656-.934-1.352-1.844-2.059-2.746-.723-.93-1.453-1.84-2.223-2.727-.8-.93-1.621-1.828-2.469-2.719-.781-.816-1.586-1.605-2.406-2.383-.535-.508-1.016-1.062-1.57-1.555a2.923,2.923,0,0,0-.375-.215,69.793,69.793,0,0,0-92.586-.008c-.125.09-.273.121-.391.223-.562.5-1.051,1.066-1.6,1.582-.8.766-1.594,1.535-2.355,2.336-.863.9-1.7,1.813-2.5,2.754-.762.879-1.484,1.781-2.2,2.7s-1.41,1.828-2.07,2.773c-.754,1.066-1.449,2.168-2.141,3.273-.531.855-1.074,1.7-1.566,2.582-.75,1.32-1.418,2.68-2.082,4.051-.352.73-.73,1.449-1.059,2.191-.7,1.6-1.316,3.25-1.9,4.91-.2.574-.437,1.133-.625,1.715-.6,1.848-1.09,3.734-1.531,5.648-.105.441-.246.871-.344,1.316-.426,2.012-.734,4.059-.984,6.125-.047.371-.129.73-.168,1.1a70.6,70.6,0,0,0-.395,7.363v16.77c-7.719.07-13.754,7.906-13.754,17.914,0,10.055,6.086,17.93,13.863,17.93a10.313,10.313,0,0,0,1.973-.285,70.126,70.126,0,0,0,20.582,34.855v.145H260.273a3.956,3.956,0,0,0-2.684,1.074h-5.055a2.928,2.928,0,0,0,0,5.855h3.734v7.867h-3.734a2.928,2.928,0,0,0,0,5.855h3.734v8.785h-3.734a2.928,2.928,0,0,0,0,5.855h.871a88.693,88.693,0,0,0-23.039,59.668v64.922a4,4,0,0,0,4,4h67.125a4,4,0,0,0,0-8H288.074V272.336a47.488,47.488,0,0,0-23.668-41.117A81.326,81.326,0,0,1,289.855,215.2v1.434a12.265,12.265,0,0,0,9.516,11.707,190.742,190.742,0,0,0,29.617,3.641V262.91a4,4,0,0,0,8,0v-3.73h5.727v3.73a4,4,0,0,0,8,0v-3.73h6.641v3.73a4,4,0,0,0,8,0v-3.73h5.73v3.73a4,4,0,0,0,8,0V226.859a12.338,12.338,0,0,0,5.855-10.23V215.2a81.323,81.323,0,0,1,25.445,16.02,47.5,47.5,0,0,0-23.668,41.113v79.16h-30a4,4,0,0,0,0,8H440.43a4,4,0,0,0,4-4V290.57A88.7,88.7,0,0,0,420.387,229.867ZM384.23,67.488c.484.559.988,1.1,1.453,1.672.727.9,1.4,1.844,2.082,2.781.508.7,1.031,1.395,1.508,2.117.547.832,1.043,1.7,1.555,2.555.523.883,1.063,1.762,1.543,2.668.391.738.73,1.5,1.09,2.258.508,1.066,1.027,2.125,1.477,3.219.27.66.492,1.344.738,2.016.445,1.2.9,2.41,1.27,3.641.2.672.348,1.367.527,2.051.328,1.246.668,2.484.918,3.754.176.895.281,1.82.418,2.727.164,1.074.359,2.137.469,3.215.2,2.02.313,4.059.313,6.125V110.9a33.724,33.724,0,0,1-17.3-45.539C382.957,66.051,383.6,66.766,384.23,67.488Zm5.418,54.32v10.141a13.268,13.268,0,0,1-13.254,13.25H359.863a13.264,13.264,0,0,1-13.25-13.25v-18.3a2.7,2.7,0,0,1,2.7-2.7h29.473A10.869,10.869,0,0,1,389.648,121.809Zm7.676-3.234c.746.3,1.5.59,2.27.848V123.5l-1.941-.555V121.8A19.186,19.186,0,0,0,397.324,118.574Zm16.023,24.387c0,6.172-3.32,10.453-6.332,9.887.039-.3.051-.609.09-.914.066-.609.121-1.223.176-1.836.176-1.988.293-3.969.3-5.926,0-.074.016-.141.016-.215V133.039C410.336,133.141,413.348,137.191,413.348,142.961ZM376.2,59.754a41.672,41.672,0,0,0,1.809,43.2H349.32a10.713,10.713,0,0,0-10.7,10.7v4.324H336.16v-.84a14.194,14.194,0,0,0-14.18-14.18h-25.2a41.672,41.672,0,0,0,1.809-43.2,61.907,61.907,0,0,1,77.605,0Zm-99.066,62.055v1.137l-1.941.559v-4.078c.773-.254,1.52-.551,2.27-.848A18.71,18.71,0,0,0,277.129,121.809ZM275.5,102.156c.105-1.062.3-2.105.461-3.164.141-.926.242-1.867.426-2.781.25-1.246.586-2.465.906-3.687.184-.707.336-1.422.543-2.117.363-1.207.809-2.387,1.242-3.57.258-.7.484-1.406.766-2.09.441-1.07.953-2.117,1.453-3.164.367-.773.715-1.555,1.113-2.312.473-.895,1.012-1.754,1.527-2.629s1.02-1.746,1.574-2.59c.473-.715.992-1.4,1.492-2.094.684-.941,1.359-1.891,2.094-2.8.461-.57.965-1.113,1.453-1.676.633-.723,1.273-1.434,1.938-2.129a33.724,33.724,0,0,1-17.3,45.539v-2.617C275.188,106.215,275.3,104.176,275.5,102.156Zm9.629,19.652a10.867,10.867,0,0,1,10.855-10.855h25.992a6.188,6.188,0,0,1,6.18,6.18v14.816a13.264,13.264,0,0,1-13.25,13.25H298.371a13.261,13.261,0,0,1-13.246-13.25V121.809Zm-17.363,31.039c-3.082.57-6.332-3.715-6.332-9.887,0-5.773,3.012-9.824,5.754-9.922v10.918c0,2.051.129,4.121.313,6.191.051.594.105,1.188.172,1.773C267.707,152.23,267.723,152.539,267.766,152.848Zm7.422-8.891V131.816l1.941-.555v.684a21.274,21.274,0,0,0,21.246,21.25H314.91a21.275,21.275,0,0,0,21.25-21.25v-5.973h2.461v5.977a21.275,21.275,0,0,0,21.25,21.25H376.4a21.276,21.276,0,0,0,21.254-21.25v-.684l1.941.555v12.141a62.205,62.205,0,0,1-124.41,0Zm14.66,62.664c-1.219.434-2.445.855-3.641,1.34-1.1.445-2.176.941-3.254,1.43-1.227.551-2.441,1.113-3.633,1.715-1.117.566-2.215,1.164-3.309,1.777a.426.426,0,0,1-.043.023v-9.3h13.879Zm-25.586-3.016h3.711v14.332c-.445.316-.859.664-1.3.988-.8.59-1.637,1.121-2.41,1.73Zm15.8,68.73v79.156H238.359V290.57a80.575,80.575,0,0,1,20.16-53.355A39.447,39.447,0,0,1,280.066,272.336Zm17.781-55.707-.012-14.687c.094.066.188.117.281.176.105.074.223.137.332.207,1.578,1.059,3.2,2.035,4.855,2.957.57.32,1.156.617,1.734.922,1.258.652,2.527,1.266,3.824,1.844.668.3,1.332.6,2.008.879,1.52.621,3.063,1.18,4.621,1.691.547.18,1.094.371,1.648.539,1.758.535,3.539.984,5.34,1.379.719.156,1.449.277,2.172.41q2.133.4,4.3.656c.688.086,1.367.172,2.059.238,2.113.191,4.234.32,6.371.32s4.262-.125,6.379-.32c.691-.066,1.371-.152,2.055-.234,1.449-.176,2.883-.395,4.316-.66.719-.133,1.438-.254,2.152-.406,1.824-.4,3.629-.855,5.41-1.4.52-.156,1.031-.34,1.547-.508q2.361-.773,4.66-1.707c.672-.277,1.328-.574,1.992-.871,1.3-.582,2.582-1.2,3.844-1.852.578-.3,1.156-.6,1.727-.914,1.645-.914,3.254-1.887,4.824-2.934.121-.086.254-.156.379-.242.082-.055.176-.105.262-.164v14.684a4.323,4.323,0,0,1-3.113,3.863,181.392,181.392,0,0,1-72.859,0A4.325,4.325,0,0,1,297.848,216.629Zm39.543,15.563a188.63,188.63,0,0,0,23.855-1.578c.8-.1,1.613-.2,2.418-.309,1.66-.23,3.32-.492,4.98-.766.809-.133,1.629-.234,2.434-.379v10.3h-34.09v-7.281C337.121,232.184,337.258,232.191,337.391,232.191Zm-.41,15.273h34.09v3.715H336.98Zm99.441,104.027H394.711V272.336a39.453,39.453,0,0,1,21.547-35.125,80.562,80.562,0,0,1,20.156,53.359v60.922Zm0,0"/>
      <path id="Path_42" data-name="Path 42" d="M307.016,128.074a6.619,6.619,0,1,0,6.621,6.621A6.622,6.622,0,0,0,307.016,128.074Zm0,0" fill="#3a2c60"/>
      <path id="Path_43" data-name="Path 43" d="M365.43,128.074a6.619,6.619,0,1,0,6.617,6.621A6.622,6.622,0,0,0,365.43,128.074Zm0,0" fill="#3a2c60"/>
      <path id="Path_44" data-name="Path 44" d="M337.387,168.16a11.546,11.546,0,0,0,11.535-11.527,4,4,0,0,0-8,0,3.531,3.531,0,0,1-7.062,0,4,4,0,0,0-8,0A11.541,11.541,0,0,0,337.387,168.16Zm0,0" fill="#3a2c60"/>
      <path id="Path_45" data-name="Path 45" d="M374.543,117.3l-12.965-2.254a4,4,0,0,0-1.375,7.883l12.965,2.258a4.2,4.2,0,0,0,.691.059,4,4,0,0,0,.684-7.945Zm0,0" fill="#3a2c60"/>
      <path id="Path_46" data-name="Path 46" d="M298.586,125.246a4.237,4.237,0,0,0,.691-.059l12.957-2.258a4,4,0,0,0-1.375-7.883L297.9,117.3a4,4,0,0,0,.688,7.945Zm0,0" fill="#3a2c60"/>
      <path id="Path_47" data-name="Path 47" d="M337.387,185.461a23.3,23.3,0,0,0,17.855-8.363,3.98,3.98,0,0,0-.754-5.566,4.021,4.021,0,0,0-5.6.711,15.212,15.212,0,0,1-11.5,5.219,14.678,14.678,0,0,1-11.441-5.145,4,4,0,0,0-6.469,4.711A22.7,22.7,0,0,0,337.387,185.461Zm0,0" fill="#3a2c60"/>
      <path id="Path_48" data-name="Path 48" d="M317.773,84.367a63.073,63.073,0,0,1,39.238,0,2,2,0,0,0,1.234-3.809,67,67,0,0,0-41.707,0,2,2,0,0,0,1.234,3.809Zm0,0" fill="#3a2c60"/>
      <path id="Path_49" data-name="Path 49" d="M359.277,166.34c7.773,3.246,12.2,11.6,12.246,11.684A2,2,0,0,0,373.3,179.1a1.965,1.965,0,0,0,.918-.223,2,2,0,0,0,.855-2.691c-.207-.4-5.109-9.719-14.254-13.539a2,2,0,0,0-1.539,3.7Zm0,0" fill="#3a2c60"/>
      <path id="Path_50" data-name="Path 50" d="M300.559,178.875a2.006,2.006,0,0,0,2.7-.852c.047-.086,4.469-8.437,12.246-11.684a2,2,0,0,0-1.535-3.7c-9.141,3.82-14.055,13.141-14.258,13.539A1.992,1.992,0,0,0,300.559,178.875Zm0,0" fill="#3a2c60"/>
    </g>
  </g>
</svg>
