<?xml version="1.0" encoding="iso-8859-1"?>
<!-- Generator: Adobe Illustrator 19.0.0, SVG Export Plug-In . SVG Version: 6.00 Build 0)  -->
<svg version="1.1" id="Capa_1" xmlns="http://www.w3.org/2000/svg" xmlns:xlink="http://www.w3.org/1999/xlink" x="0px" y="0px"
	 viewBox="0 0 480.002 480.002" style="enable-background:new 0 0 480.002 480.002;" xml:space="preserve">
<path style="fill:#EFD06F;" d="M240.001,8.002l-112,112v-56h-64v120l-56,56v232h464v-232L240.001,8.002z M64.001,224.002h56
	c0,13.28,10.72,24,24,24s24-10.72,24-24h56v32h-24v88h-112v-88h-24V224.002z M256.001,408.002v16h-32h-32h-32h-32h-32h-56v-32h56h32
	h32h32h32h32V408.002z M390.049,363.01c-9.32,5.72-21.36,3.76-29.096-3.984c-4.328-4.336-10.32-7.024-16.952-7.024
	s-12.624,2.688-16.96,7.032c-7.728,7.736-19.768,9.704-29.096,3.984c-25.192-15.464-41.944-43.264-41.944-75.016
	s16.752-59.552,41.952-75.008c9.32-5.72,21.36-3.76,29.096,3.984c4.328,4.336,10.32,7.024,16.952,7.024s12.624-2.688,16.96-7.032
	c7.728-7.736,19.768-9.704,29.096-3.984c25.192,15.464,41.944,43.264,41.944,75.016S415.249,347.554,390.049,363.01z"/>
<path style="fill:#36C2CC;" d="M88.001,344.002h112v-88h24v-32h-56c0,13.28-10.72,24-24,24s-24-10.72-24-24h-56v32h24V344.002z"/>
<path style="fill:#EF5E65;" d="M390.049,212.994c-9.32-5.72-21.36-3.76-29.096,3.984c-4.328,4.336-10.32,7.024-16.952,7.024
	s-12.624-2.688-16.96-7.032c-7.728-7.736-19.768-9.704-29.096-3.984c-25.192,15.464-41.944,43.264-41.944,75.016
	s16.752,59.552,41.952,75.008c9.32,5.72,21.36,3.76,29.096-3.984c4.328-4.336,10.32-7.024,16.952-7.024s12.624,2.688,16.96,7.032
	c7.728,7.736,19.768,9.704,29.096,3.984c25.192-15.464,41.944-43.264,41.944-75.016S415.249,228.45,390.049,212.994z"/>
<polygon style="fill:#F4F2ED;" points="192.001,392.002 160.001,392.002 128.001,392.002 96.001,392.002 40.001,392.002 
	40.001,424.002 96.001,424.002 128.001,424.002 160.001,424.002 192.001,424.002 224.001,424.002 256.001,424.002 256.001,408.002 
	256.001,392.002 224.001,392.002 "/>
<g>
	<path style="fill:#0F2323;" d="M477.657,234.346l-232-232c-3.128-3.128-8.184-3.128-11.312,0l-98.344,98.344V64.002
		c0-4.416-3.576-8-8-8h-64c-4.424,0-8,3.584-8,8V180.69L2.345,234.346c-1.504,1.496-2.344,3.536-2.344,5.656v232
		c0,4.416,3.576,8,8,8h464c4.424,0,8-3.584,8-8v-232C480.001,237.882,479.161,235.842,477.657,234.346z M464.001,464.002h-448
		V243.314l53.656-53.656c1.504-1.496,2.344-3.536,2.344-5.656v-112h48v48c0,3.232,1.944,6.152,4.936,7.392
		c2.992,1.24,6.424,0.552,8.72-1.736L240.001,19.314l224,224V464.002z"/>
	<path style="fill:#0F2323;" d="M64.001,264.002h16v80c0,4.416,3.576,8,8,8h112c4.424,0,8-3.584,8-8v-80h16c4.424,0,8-3.584,8-8v-32
		c0-4.416-3.576-8-8-8h-56c-4.424,0-8,3.584-8,8c0,8.824-7.176,16-16,16s-16-7.176-16-16c0-4.416-3.576-8-8-8h-56
		c-4.424,0-8,3.584-8,8v32C56.001,260.418,59.577,264.002,64.001,264.002z M72.001,232.002h41.016c3.552,13.784,16.104,24,30.984,24
		s27.432-10.216,30.984-24h41.016v16h-16c-4.424,0-8,3.584-8,8v80h-96v-80c0-4.416-3.576-8-8-8h-16V232.002z"/>
	<path style="fill:#0F2323;" d="M293.769,369.834c12.344,7.56,28.352,5.456,38.944-5.16c6.016-6.032,16.552-6.032,22.584,0
		c6.344,6.352,14.64,9.664,22.92,9.664c5.536,0,11.072-1.48,16.008-4.504c28.664-17.584,45.776-48.176,45.776-81.832
		s-17.112-64.248-45.768-81.832c-12.336-7.56-28.344-5.448-38.944,5.16c-1.184,1.184-2.576,2.072-4.04,2.792
		c-3.584-24.856-20.064-54.12-47.248-54.12v16c16.096,0,27.376,19.304,30.856,37.056c-0.76-0.52-1.488-1.072-2.152-1.736
		c-10.584-10.6-26.616-12.712-38.928-5.152c-28.664,17.584-45.776,48.176-45.776,81.832S265.113,352.25,293.769,369.834z
		 M302.145,219.81c5.992-3.688,13.904-2.52,19.24,2.816c6.032,6.04,14.064,9.376,22.616,9.376s16.584-3.336,22.608-9.376
		c5.336-5.336,13.24-6.504,19.256-2.816c23.88,14.648,38.136,40.144,38.136,68.192s-14.256,53.544-38.144,68.192
		c-6,3.688-13.904,2.528-19.24-2.816c-6.032-6.04-14.064-9.376-22.616-9.376s-16.584,3.336-22.608,9.376
		c-5.336,5.336-13.248,6.504-19.256,2.816c-23.88-14.648-38.136-40.144-38.136-68.192S278.257,234.458,302.145,219.81z"/>
	<path style="fill:#0F2323;" d="M264.001,392.002c0-4.416-3.576-8-8-8h-152v-16h-16v16h-40v-16h-16v24v32v24h16v-16h40v16h16v-16
		h152c4.424,0,8-3.584,8-8v-8h112v-16h-112V392.002z M168.001,400.002h16v16h-16V400.002z M152.001,416.002h-16v-16h16V416.002z
		 M200.001,400.002h16v16h-16V400.002z M48.001,416.002v-16h40v16H48.001z M104.001,400.002h16v16h-16V400.002z M248.001,416.002
		h-16v-16h16V416.002z"/>
</g>
<g>
</g>
<g>
</g>
<g>
</g>
<g>
</g>
<g>
</g>
<g>
</g>
<g>
</g>
<g>
</g>
<g>
</g>
<g>
</g>
<g>
</g>
<g>
</g>
<g>
</g>
<g>
</g>
<g>
</g>
</svg>
